<?xml version="1.0" encoding="utf-8"?>
<!-- Generator: Adobe Illustrator 27.6.1, SVG Export Plug-In . SVG Version: 6.00 Build 0)  -->
<svg version="1.1" id="Layer_1" xmlns="http://www.w3.org/2000/svg" xmlns:xlink="http://www.w3.org/1999/xlink" x="0px" y="0px"
	 viewBox="0 0 1000 1000" style="enable-background:new 0 0 1000 1000;" xml:space="preserve">
<style type="text/css">
	.st0{fill:#F6F6F6;}
	.st1{fill:#F4F4F4;}
	.st2{fill:none;stroke:#101111;stroke-width:2;stroke-linecap:round;stroke-linejoin:round;stroke-miterlimit:10;}
	
		.st3{clip-path:url(#SVGID_00000147938223777286370560000003311348058649517233_);fill:none;stroke:#101111;stroke-width:2;stroke-linecap:round;stroke-linejoin:round;stroke-miterlimit:10;}
	.st4{fill:#101111;}
	.st5{fill:none;stroke:#1D1D1B;stroke-width:2;stroke-linecap:round;stroke-linejoin:round;stroke-miterlimit:10;}
	.st6{fill:none;stroke:#101111;stroke-width:1.6992;stroke-linecap:round;stroke-linejoin:round;stroke-miterlimit:10;}
	.st7{fill:none;stroke:#101111;stroke-width:0.8496;stroke-miterlimit:10;}
	.st8{fill:#EBAB2E;}
	
		.st9{fill:none;stroke:#101111;stroke-width:2;stroke-linecap:round;stroke-linejoin:round;stroke-miterlimit:10;stroke-dasharray:7;}
	.st10{clip-path:url(#SVGID_00000065054417846631315420000018000203889575687581_);}
	.st11{fill:none;stroke:#101111;stroke-width:1.8477;stroke-linecap:round;stroke-linejoin:round;stroke-miterlimit:10;}
	
		.st12{clip-path:url(#SVGID_00000124880137182395720470000003487730310255900574_);fill:none;stroke:#101111;stroke-width:1.8477;stroke-linecap:round;stroke-linejoin:round;stroke-miterlimit:10;}
	.st13{fill:none;stroke:#1D1D1B;stroke-width:1.8477;stroke-linecap:round;stroke-linejoin:round;stroke-miterlimit:10;}
	.st14{fill:none;stroke:#101111;stroke-width:1.5698;stroke-linecap:round;stroke-linejoin:round;stroke-miterlimit:10;}
	.st15{fill:none;stroke:#101111;stroke-width:0.7849;stroke-miterlimit:10;}
	
		.st16{fill:none;stroke:#101111;stroke-width:1.8477;stroke-linecap:round;stroke-linejoin:round;stroke-miterlimit:10;stroke-dasharray:6.4671;}
	.st17{clip-path:url(#SVGID_00000162313998994969779580000007415477911509568144_);}
	.st18{fill:none;stroke:#101111;stroke-width:4.7147;stroke-linecap:round;stroke-linejoin:round;stroke-miterlimit:10;}
	
		.st19{clip-path:url(#SVGID_00000124161088919716311260000007226379922466142864_);fill:none;stroke:#101111;stroke-width:4.7147;stroke-linecap:round;stroke-linejoin:round;stroke-miterlimit:10;}
	.st20{fill:none;stroke:#1D1D1B;stroke-width:4.7147;stroke-linecap:round;stroke-linejoin:round;stroke-miterlimit:10;}
	.st21{fill:none;stroke:#101111;stroke-width:4.0056;stroke-linecap:round;stroke-linejoin:round;stroke-miterlimit:10;}
	.st22{fill:none;stroke:#101111;stroke-width:2.0028;stroke-miterlimit:10;}
	
		.st23{fill:none;stroke:#101111;stroke-width:4.7147;stroke-linecap:round;stroke-linejoin:round;stroke-miterlimit:10;stroke-dasharray:16.5015;}
	.st24{clip-path:url(#SVGID_00000050657846425396537970000017568387888208956330_);}
</style>
<g>
	<g id="XMLID_00000113327016003775792740000015279407501478245543_">
		<g>
			<path class="st18" d="M849.75,175.99c-2.67,0-6.99,0.24-11.41,0.78c-1.07,0.15-2.14,0.29-3.2,0.49
				c-9.95,1.55-20.54,3.54-30.15,7.48c-10.34,4.61-18.65,9.18-25.88,14.32c-8.01,5.54-16.36,11.75-23.21,19.28
				c-7.91,8.4-13.45,15.3-17.97,22.43c-2.48,3.59-6.6,11.65-9.66,19.81c-2.72,7.28-4.56,13.45-5.88,19.37
				c-2.14,9.71-2.48,14.37-2.96,23.06c-0.39,6.75-0.1,13.84,0.73,20.49c0.63,5.49,1.41,10.2,2.19,13.69
				c1.6,7.28,3.88,16.7,7.14,24.76c4.71,11.41,11.36,22.04,20.93,33.41c3.16,3.79,16.9,17.33,29.13,25.54
				c1.26,0.87,6.51,3.79,8.35,4.71c11.02,5.44,23.16,10,36.13,13.55c8.4,1.94,17.53,2.77,29.52,2.62c2.52,0,5.05-0.1,7.57-0.34
				c2.62-0.1,5.15-0.29,7.67-0.63c11.9-1.36,20.88-3.3,29.13-6.36c12.24-5.1,23.74-11.12,34.04-17.97l0.29-0.15
				c1.55-0.87,6.56-4.86,7.33-5.54c11.17-9.71,23.02-24.86,25.69-28.99c8.11-12.53,13.35-23.89,16.56-35.83
				c2.19-8.06,3.25-17.38,4.03-25.44c0.29-3.79,0.44-8.79,0.39-13.79c0-6.75-0.63-13.79-1.85-20.49
				c-1.65-8.69-2.57-13.26-5.83-22.48c-2.04-5.73-4.71-11.61-8.3-18.5c-4.03-7.67-9.18-15.15-11.94-18.35
				c-5.49-6.65-11.85-12.77-20.69-20.05c-7.82-6.65-16.85-11.7-25.49-16.22c-7.82-4.18-16.9-7.77-27.68-11.02
				c-9.91-2.62-20.64-3.25-30.74-3.59c-1.07,0-2.14-0.05-3.25-0.05C850.29,175.99,849.99,175.99,849.75,175.99z"/>
		</g>
	</g>
	<g>
		<defs>
			<path id="SVGID_00000085242718868083562910000004193124539400720289_" d="M849.75,175.99c-2.67,0-6.99,0.24-11.41,0.78
				c-1.07,0.15-2.14,0.29-3.2,0.49c-9.95,1.55-20.54,3.54-30.15,7.48c-10.34,4.61-18.65,9.18-25.88,14.32
				c-8.01,5.54-16.36,11.75-23.21,19.28c-7.91,8.4-13.45,15.3-17.97,22.43c-2.48,3.59-6.6,11.65-9.66,19.81
				c-2.72,7.28-4.56,13.45-5.88,19.37c-2.14,9.71-2.48,14.37-2.96,23.06c-0.39,6.75-0.1,13.84,0.73,20.49
				c0.63,5.49,1.41,10.2,2.19,13.69c1.6,7.28,3.88,16.7,7.14,24.76c4.71,11.41,11.36,22.04,20.93,33.41
				c3.16,3.79,16.9,17.33,29.13,25.54c1.26,0.87,6.51,3.79,8.35,4.71c11.02,5.44,23.16,10,36.13,13.55
				c8.4,1.94,17.53,2.77,29.52,2.62c2.52,0,5.05-0.1,7.57-0.34c2.62-0.1,5.15-0.29,7.67-0.63c11.9-1.36,20.88-3.3,29.13-6.36
				c12.24-5.1,23.74-11.12,34.04-17.97l0.29-0.15c1.55-0.87,6.56-4.86,7.33-5.54c11.17-9.71,23.02-24.86,25.69-28.99
				c8.11-12.53,13.35-23.89,16.56-35.83c2.19-8.06,3.25-17.38,4.03-25.44c0.29-3.79,0.44-8.79,0.39-13.79
				c0-6.75-0.63-13.79-1.85-20.49c-1.65-8.69-2.57-13.26-5.83-22.48c-2.04-5.73-4.71-11.61-8.3-18.5
				c-4.03-7.67-9.18-15.15-11.94-18.35c-5.49-6.65-11.85-12.77-20.69-20.05c-7.82-6.65-16.85-11.7-25.49-16.22
				c-7.82-4.18-16.9-7.77-27.68-11.02c-9.91-2.62-20.64-3.25-30.74-3.59c-1.07,0-2.14-0.05-3.25-0.05
				C850.29,175.99,849.99,175.99,849.75,175.99z"/>
		</defs>
		<clipPath id="SVGID_00000045610809962338940910000001110675426143102899_">
			<use xlink:href="#SVGID_00000085242718868083562910000004193124539400720289_"  style="overflow:visible;"/>
		</clipPath>
		
			<path style="clip-path:url(#SVGID_00000045610809962338940910000001110675426143102899_);fill:none;stroke:#101111;stroke-width:4.7147;stroke-linecap:round;stroke-linejoin:round;stroke-miterlimit:10;" d="
			M901.61,441.01c-0.08-13.05-1.29-25.9-4.4-37.17c-2.17-15.75-13.37-32.73-29.62-36.23c25.26-13.01,17.67-53.47-10.4-54.06h-0.25
			h-1.82h-0.25c-28.07,0.59-35.66,41.04-10.4,54.06c-16.25,3.5-27.45,20.48-29.62,36.23c-3.1,11.27-4.32,24.13-4.4,37.17l-0.19,0.84
			c0.26,0.07,0.52,0.12,0.78,0.18c5.73,1.25,84.26,1.25,89.99,0c0.26-0.05,0.52-0.11,0.78-0.18L901.61,441.01z"/>
		
			<path style="clip-path:url(#SVGID_00000045610809962338940910000001110675426143102899_);fill:none;stroke:#101111;stroke-width:4.7147;stroke-linecap:round;stroke-linejoin:round;stroke-miterlimit:10;" d="
			M902.49,436.91c37.27-8.87,60.24-21.16,65.54-22.32c0.24-0.05,0.48-0.1,0.72-0.16l-0.18-0.78c-0.07-12.06-1.2-23.95-4.07-34.37
			c-2-14.56-12.36-30.26-27.39-33.5c23.36-12.03,16.34-49.43-9.62-49.98h-0.23h-1.68h-0.23c-25.96,0.55-32.97,37.95-9.62,49.98
			c-15.03,3.23-25.38,18.93-27.39,33.5"/>
		
			<path style="clip-path:url(#SVGID_00000045610809962338940910000001110675426143102899_);fill:none;stroke:#101111;stroke-width:4.7147;stroke-linecap:round;stroke-linejoin:round;stroke-miterlimit:10;" d="
			M824.28,379.28c-2-14.56-12.36-30.26-27.39-33.5c23.36-12.03,16.34-49.43-9.62-49.98h-0.23h-1.68h-0.23
			c-25.96,0.55-32.97,37.95-9.62,49.98c-15.03,3.23-25.38,18.93-27.39,33.5c-2.87,10.42-3.99,22.31-4.07,34.37l-0.18,0.78
			c0.24,0.06,0.48,0.11,0.72,0.16c3.84,0.84,41.63,15.09,64.21,22.46"/>
	</g>
	<g id="XMLID_00000050664446798436643070000010710947019023716506_">
		<g>
			<path class="st4" d="M710.24,978.22c0-1.7-0.38-3.65-1.11-5.82c-0.97-2.9-16.15-31.19-35.12-66.19l0.8-0.42
				c0.05-28.26,0.4-62.07,0.4-62.07c0.68-39.82,1.46-86.09,1.72-104.62c0.09-5.42,0.07-51.56-0.54-86.42l1.91-0.05
				c0,0,33.03-0.17,36.16,0c4.43,0.21,14.14,2.33,14.14,13.86c0,11.55-0.83,272.18-0.83,284.6c0,12.42-3.61,27.23-14.26,27.23
				L710.24,978.22z"/>
			<path class="st4" d="M366.51,652.62l3.25,0.02c-0.24,7.64-0.21,48.09-0.05,87.55l-0.17,0.07c-4.38-11.1-10.14-22.37-21.64-22.37
				c-9.45,0-22.65-0.07-31.57-0.14v-0.35c-0.09-28.01-0.14-47.9-0.14-50.92c0-11.53,9.71-13.65,14.14-13.86
				C333.49,652.46,366.51,652.62,366.51,652.62z"/>
			<path class="st4" d="M883.95,241.1c0.57,0.45,0.61,0.92,0.42,1.39c-0.21,0.09-0.54,0.09-0.94-0.05c-0.45-0.19-0.85-0.52-1.23-0.9
				c0.05-0.05,0.07-0.09,0.12-0.14C882.7,240.91,883.41,240.72,883.95,241.1z"/>
			<path class="st4" d="M884.47,240.44c0.57,0.71,0.57,1.74-0.09,2.05c0.19-0.47,0.14-0.94-0.42-1.39
				c-0.54-0.38-1.25-0.19-1.63,0.31c-0.05,0.05-0.07,0.09-0.12,0.14c-0.57-0.59-1.08-1.27-1.6-1.72
				c-4.46-4.38-8.44-9.17-12.73-13.67c-1.11-1.06,0.4-2.78,1.58-1.77c2.99,2.97,5.59,6.29,8.51,9.31
				C880.2,236.05,882.28,238.13,884.47,240.44z"/>
			<path class="st4" d="M874.15,253.07c-1.82,1.86-3.68,3.68-5.56,5.42c-0.57,0.64-1.79,1.3-2.48,0.52
				c-0.42-0.85,0.24-1.74,0.87-2.26c1.04-0.97,2.07-1.93,3.09-2.92c3.37-3.39,6.62-6.88,10.11-10.16c0.73-0.71,1.46-1.41,2.03-2.12
				c0.38,0.38,0.78,0.71,1.23,0.9c0.4,0.14,0.73,0.14,0.94,0.05c-0.33,0.87-1.51,1.72-2.03,2.36
				C879.54,247.53,876.81,250.27,874.15,253.07z"/>
			<path class="st4" d="M859.18,219.46c-0.57,1.91-10.54,39.23-11.43,42.6c-0.12,0.68-0.47,1.6-1.13,2
				c-0.31,0.17-0.66,0.21-1.01,0.12c-0.02,0-0.05-0.02-0.09-0.02c-0.02,0-0.05-0.02-0.05-0.05c-1.13-0.8-0.61-2.4-0.21-3.7
				c0.16-0.5,0.31-0.94,0.35-1.32c0.31-1.25,4.05-14.62,7.02-25.62c1.93-7.19,3.51-13.58,3.75-14.26c0.07-0.68,0.71-1.25,1.41-1.25
				c0.78,0.02,1.39,0.64,1.41,1.44C859.2,219.41,859.2,219.43,859.18,219.46z"/>
			<path class="st4" d="M818.79,242.49c0.24,0.09,0.54,0.09,0.92-0.05c0.45-0.19,0.87-0.54,1.23-0.92c0.57,0.71,1.32,1.44,2.03,2.15
				c3.49,3.28,6.77,6.77,10.11,10.16c1.01,0.99,2.05,1.96,3.09,2.92c0.66,0.52,1.32,1.41,0.87,2.26c-0.66,0.78-1.89,0.12-2.45-0.52
				c-1.91-1.74-3.77-3.56-5.56-5.42c-2.66-2.81-5.42-5.54-8.2-8.23C820.3,244.21,819.12,243.36,818.79,242.49z"/>
			<path class="st4" d="M820.94,241.52c-0.35,0.38-0.78,0.73-1.23,0.92c-0.38,0.14-0.68,0.14-0.92,0.05h-0.02
				c-0.19-0.47-0.12-0.94,0.42-1.39c0.57-0.38,1.25-0.19,1.65,0.31C820.87,241.45,820.92,241.47,820.94,241.52z"/>
			<path class="st4" d="M820.85,241.4c-0.4-0.5-1.08-0.68-1.65-0.31c-0.54,0.45-0.61,0.92-0.42,1.39c-0.64-0.31-0.64-1.34-0.07-2.05
				c2.17-2.31,4.27-4.38,6.48-6.74c2.95-3.02,5.54-6.34,8.51-9.31c1.18-1.01,2.71,0.71,1.58,1.77c-4.29,4.5-8.27,9.29-12.73,13.67
				c-0.5,0.45-1.01,1.11-1.6,1.7C820.92,241.47,820.87,241.45,820.85,241.4z"/>
			<path d="M372.52,848.68c-1.91,2.71-3.14,21.17,13.04,40.1c16.2,18.95,43.78,21.38,52.73,22.28c-5.52,1.04-1.72,11.6-1.72,11.6
				s-6.34,2.38-15.86,2.17c-9.5-0.21-14.95-8.09-24.35-14.31c-9.38-6.22-15.94-2.95-18.01-2c-2.05,0.94,2.88,3.25,7.12,4.5
				c4.24,1.23,7.92,4.46,13.22,11.22c5.28,6.77,12.52,9.48,20.84,12.16c8.3,2.69,19.66-0.71,20.72-0.73c1.06,0,2.33,3.96,3.7,6.81
				c1.37,2.85,3.7,11.01,3.58,12.8c-0.12,1.77-3.68,0.97-24.63-4.53c-20.96-5.49-48.47-26.59-62.89-40.24
				c-14.4-13.65-42.76-57.19-24.38-90.5c18.39-33.33,57.9-34.94,65.61-35.9c12.8-1.63,27.63-0.87,41.68,2.66
				c14.03,3.54,23.22,7.02,36.73,12.89c5.66,2.45,15.56,8.16,20.82,11.32c4.1,2.45,33.05,27.16,42.15,42.88
				c4.36,7.52,7.78,14.78,8.91,22.32c2.78,18.34-0.52,35.81-8.53,50.87c-1.25,2.36-2.62,4.67-4.36,6.74
				c-2.03,2.38-4.53,4.43-7.05,6.46c-6.2,5-12.59,9.95-20.63,13.25c-1.77,0.73-5.8,1.53-7.76,0.19c-1.11-0.73-1.63-1.84-2.07-2.85
				c-3.94-8.77-6.77-17.75-11.5-26.45c-3.04-5.52-6.77-11.55-13.39-14.97c9.69-1.3,14.69-2.52,22.72-5.16
				c2.36-0.75,7.64-4.03,9.24-5.52c4.9-4.6,5.85-11.86,5.33-18.15c-1.16-13.88-9.5-27.04-24.09-38.28
				c-0.38-4.74-0.85-9.69-3.87-14.43c-0.97-1.51-2.15-2.95-3.32-4.38c-1.06-1.25-3.51-3.87-4.55-5.14
				c-5.04-0.14-9.36,1.39-13.51,2.85c-1.49,0.54-2.81,1.25-4.13,1.98c-2.78,1.53-4.34,2.66-7.14,4.22
				c-4.13-0.38-13.11-3.25-21.99-2.59c-5.35,0.4-14.73,0.26-19.59,1.58c-4.6,1.27-8.49,2.52-13.3,3.54
				c-9.19-5.99-20.51-9.34-30.69-9.31c-1.3,6.91,0.75,14.85,5.7,22.14c0.52,0.73,1.06,1.51,1.2,2.26
				C374.53,846.46,373.3,847.57,372.52,848.68z"/>
			<path d="M140.84,343.19c2.43,0,4.86,1.86,4.86,5.07c0,3.32-2.55,5.33-5.75,4.67c-2.97-0.68-4.08-3.56-3.54-5.99
				C137.07,344.4,138.96,343.19,140.84,343.19z"/>
		</g>
		<g>
			<path class="st18" d="M678.3,652.62c0,0,33.03-0.17,36.16,0c4.43,0.21,14.14,2.33,14.14,13.86c0,11.55-0.83,272.18-0.83,284.6
				c0,12.42-3.61,27.23-14.26,27.23"/>
			<path class="st18" d="M366.51,652.62c0,0-33.03-0.17-36.16,0c-4.43,0.21-14.14,2.33-14.14,13.86c0,3.02,0.05,22.91,0.14,50.92"/>
			<path class="st18" d="M15.53,315.9c0,2.66,0.24,7,0.78,11.41c0.14,1.06,0.28,2.15,0.5,3.21c1.53,9.95,3.54,20.53,7.47,30.15
				c4.6,10.35,9.17,18.65,14.31,25.88c5.54,8.02,11.76,16.36,19.28,23.22c8.39,7.9,15.3,13.44,22.44,17.96
				c3.58,2.48,11.65,6.6,19.8,9.67c7.28,2.71,13.46,4.55,19.38,5.87c9.71,2.15,14.38,2.48,23.05,2.97
				c6.77,0.38,13.84,0.09,20.51-0.73c5.47-0.64,10.18-1.41,13.67-2.19c7.28-1.6,16.71-3.89,24.78-7.14
				c11.41-4.71,22.04-11.36,33.4-20.93c3.8-3.14,17.33-16.88,25.55-29.11c0.87-1.27,3.77-6.51,4.69-8.37
				c5.45-11.01,10.02-23.15,13.55-36.11c1.93-8.42,2.76-17.54,2.62-29.54c0-2.52-0.09-5.04-0.33-7.57
				c-0.09-2.62-0.31-5.14-0.64-7.66c-1.37-11.9-3.3-20.89-6.36-29.14c-5.09-12.23-11.1-23.74-17.96-34.04l-0.14-0.28
				c-0.87-1.56-4.86-6.58-5.54-7.35c-9.71-11.15-24.85-23.01-29-25.67c-12.52-8.11-23.88-13.37-35.83-16.57
				c-8.06-2.17-17.37-3.25-25.44-4.01c-3.8-0.31-8.79-0.45-13.79-0.4c-6.74,0-13.79,0.64-20.49,1.84
				c-8.7,1.65-13.27,2.57-22.49,5.82c-5.73,2.05-11.6,4.71-18.51,8.32c-7.66,4.03-15.13,9.17-18.34,11.93
				c-6.65,5.49-12.78,11.86-20.06,20.7c-6.65,7.83-11.69,16.86-16.22,25.48c-4.17,7.83-7.78,16.9-11.03,27.68
				c-2.62,9.92-3.25,20.65-3.58,30.74c0,1.08-0.05,2.15-0.05,3.25C15.53,315.35,15.53,315.66,15.53,315.9z"/>
			<path class="st18" d="M634.83,143.39c0-2.66-0.24-6.98-0.78-11.41c-0.14-1.06-0.28-2.12-0.47-3.21
				c-1.56-9.95-3.56-20.53-7.5-30.15c-4.6-10.35-9.17-18.65-14.31-25.88c-5.54-8.02-11.76-16.36-19.28-23.2
				c-8.39-7.92-15.3-13.46-22.44-17.96c-3.58-2.48-11.65-6.62-19.8-9.67c-7.28-2.73-13.44-4.57-19.38-5.89
				c-9.71-2.12-14.36-2.48-23.05-2.95c-6.74-0.4-13.84-0.09-20.49,0.73c-5.49,0.61-10.21,1.39-13.7,2.17
				c-7.28,1.6-16.71,3.89-24.78,7.14c-11.41,4.71-22.04,11.36-33.4,20.93c-3.8,3.16-17.33,16.9-25.53,29.14
				c-0.87,1.25-3.8,6.51-4.71,8.35c-5.45,11.03-10,23.17-13.55,36.14c-1.93,8.39-2.76,17.52-2.62,29.51c0,2.52,0.09,5.04,0.33,7.57
				c0.12,2.62,0.31,5.16,0.64,7.68c1.37,11.88,3.3,20.86,6.36,29.14c5.09,12.23,11.13,23.74,17.96,34.02l0.14,0.31
				c0.87,1.56,4.86,6.55,5.54,7.33c9.71,11.17,24.87,23.01,29,25.67c12.52,8.11,23.88,13.37,35.83,16.57
				c8.06,2.19,17.37,3.25,25.44,4.03c3.8,0.28,8.79,0.42,13.79,0.38c6.77,0,13.79-0.61,20.49-1.84c8.7-1.65,13.27-2.57,22.49-5.82
				c5.73-2.05,11.6-4.71,18.51-8.3c7.66-4.03,15.16-9.19,18.36-11.95c6.65-5.49,12.75-11.86,20.04-20.7
				c6.65-7.8,11.72-16.83,16.22-25.48c4.17-7.83,7.78-16.9,11.03-27.68c2.62-9.9,3.25-20.63,3.58-30.74c0-1.06,0.05-2.12,0.05-3.25
				C634.83,143.93,634.83,143.64,634.83,143.39z"/>
			<polyline class="st20" points="75.26,369.46 73.09,256.77 218.59,256.77 			"/>
			<path class="st20" d="M77.38,371.81c0,0,38.47-0.14,47.57-0.35l0.21,46.16c0,0,33.69-44.74,34.84-45.71
				c11.53,0,60.35-1.11,60.35-1.11l-1.2-113.15"/>
			<polyline class="st21" points="807.79,269.01 806.47,208.61 896.49,208.61 			"/>
			<path class="st21" d="M809.11,270.47c0,0,23.81-0.09,29.44-0.21l0.14,28.55c0,0,20.84-27.68,21.55-28.29
				c7.14,0,37.34-0.68,37.34-0.68l-0.73-60.68"/>
			<path class="st22" d="M882.21,241.55c-0.57-0.59-1.08-1.27-1.6-1.72c-4.46-4.38-8.44-9.17-12.73-13.67
				c-1.11-1.06,0.4-2.78,1.58-1.77c2.99,2.97,5.59,6.29,8.51,9.31c2.24,2.36,4.31,4.43,6.51,6.74c0.57,0.71,0.57,1.74-0.09,2.05"/>
			<path class="st22" d="M884.38,242.49c-0.33,0.87-1.51,1.72-2.03,2.36c-2.81,2.69-5.54,5.42-8.2,8.23
				c-1.82,1.86-3.68,3.68-5.56,5.42c-0.57,0.64-1.79,1.3-2.48,0.52c-0.42-0.85,0.24-1.74,0.87-2.26c1.04-0.97,2.07-1.93,3.09-2.92
				c3.37-3.39,6.62-6.88,10.11-10.16c0.73-0.71,1.46-1.41,2.03-2.12c0.05-0.05,0.07-0.09,0.12-0.14c0.38-0.5,1.08-0.68,1.63-0.31
				C884.52,241.55,884.56,242.02,884.38,242.49z"/>
			<path class="st22" d="M820.94,241.52c0.59-0.59,1.11-1.25,1.6-1.7c4.46-4.38,8.44-9.17,12.73-13.67c1.13-1.06-0.4-2.78-1.58-1.77
				c-2.97,2.97-5.56,6.29-8.51,9.31c-2.22,2.36-4.31,4.43-6.48,6.74c-0.57,0.71-0.57,1.74,0.07,2.05"/>
			<path class="st22" d="M818.79,242.49c0.33,0.87,1.51,1.72,2.03,2.36c2.78,2.69,5.54,5.42,8.2,8.23c1.79,1.86,3.65,3.68,5.56,5.42
				c0.57,0.64,1.79,1.3,2.45,0.52c0.45-0.85-0.21-1.74-0.87-2.26c-1.04-0.97-2.07-1.93-3.09-2.92c-3.35-3.39-6.62-6.88-10.11-10.16
				c-0.71-0.71-1.46-1.44-2.03-2.15c-0.02-0.05-0.07-0.07-0.09-0.12c-0.4-0.5-1.08-0.68-1.65-0.31c-0.54,0.45-0.61,0.92-0.42,1.39
				H818.79z"/>
			<path class="st8" d="M674.81,905.78c0.05-28.26,0.4-62.07,0.4-62.07c0.68-39.82,1.46-86.09,1.72-104.62
				c0.09-5.42,0.07-51.56-0.54-86.42c-0.38-20.91-0.97-37.79-1.86-39.41c-2.4-4.34-90.17-95.97-93.54-96.44
				c-3.37-0.5-70.89,0.97-80.03,1.44c-9.17,0.5-112.35,1.46-120.06,0.97c-7.73-0.47-12.07,0.49-12.54,4.83
				c-0.5,4.34,0,15.42,0,25.06s1.93,91.14,1.44,103.18c0,0.12,0,0.24-0.02,0.35c-0.24,7.64,0.58,53.92,0.74,93.38l8.65,8.65
				l210.33,0.67L674.81,905.78z"/>
			<path class="st22" d="M847.74,262.05c0.9-3.37,10.87-40.69,11.43-42.6c0.02-0.02,0.02-0.05,0.02-0.07
				c-0.02-0.8-0.64-1.41-1.41-1.44c-0.71,0-1.34,0.57-1.41,1.25c-0.24,0.68-1.82,7.07-3.75,14.26c-2.97,11.01-6.72,24.38-7.02,25.62
				c-0.05,0.38-0.19,0.83-0.35,1.32c-0.4,1.3-0.92,2.9,0.21,3.7c0,0.02,0.02,0.05,0.05,0.05c0.05,0,0.07,0.02,0.09,0.02
				c0.35,0.09,0.71,0.05,1.01-0.12C847.27,263.66,847.62,262.74,847.74,262.05z"/>
			<path class="st18" d="M674.81,905.78c0.05-28.26,0.4-62.07,0.4-62.07c0.68-39.82,1.46-86.09,1.72-104.62
				c0.09-5.42,0.07-51.56-0.54-86.42c-0.38-20.91-0.97-37.79-1.86-39.41c-2.4-4.34-90.17-95.97-93.54-96.44
				c-3.37-0.5-70.89,0.97-80.03,1.44c-9.17,0.5-112.35,1.46-120.06,0.97c-7.73-0.47-12.07,0.49-12.54,4.83
				c-0.5,4.34,0,15.42,0,25.06s1.93,91.14,1.44,103.18c0,0.12,0,0.24-0.02,0.35c-0.24,7.64-0.21,48.09-0.05,87.55"/>
			<path class="st18" d="M580.98,516.81c0,0,2.9,12.05,3.54,22.65s0.64,61.72,0.33,64.95c-0.33,3.21,0.64,6.41,4.81,7.38
				c4.2,0.97,41.47,3.54,66.88,3.54c11.88,0,17.99-2.07,17.99-2.07"/>
			<path class="st18" d="M316.35,717.75c-5.73-0.05-9.69-0.07-9.69-0.07c-22.18,0-86.51,0.9-93.63,0.9
				c-8.86,0-28.38-1.79-16.86,22.18c8.51,17.66,110.94,230.74,110.94,230.74s3.56,14.19,20.41,14.19
				c16.86,0,362.96-1.77,372.75-0.87c7.12,0.64,9.97-2.03,9.97-6.6c0-1.7-0.38-3.65-1.11-5.82c-0.97-2.9-16.15-31.19-35.12-66.19
				c-33.66-62-79.35-145.02-79.35-145.02s-3.56-8.89-21.31-7.99c-17.75,0.87-189.96,1.77-189.96,1.77s-2.07,0.09-3.56-0.61
				c-2.97-1.39-6.79-5.04-9.74-12.71c-0.17-0.45-0.35-0.92-0.54-1.37c-4.38-11.1-10.14-22.37-21.64-22.37
				C338.46,717.9,325.26,717.83,316.35,717.75z"/>
			<path class="st18" d="M129.86,291.66c1.65-6.77,9.55-7.17,10.89-7.38c2.9-0.45,5.37,0.31,8.25,1.01
				c4.53,1.13,7.45,6.32,8.7,10.51c1.53,5.14-0.17,10.11-4.03,13.79c-2.76,2.64-6.27,4.36-9.85,5.68c-1.32,0.5-2.85,1.11-3.25,2.45
				c-0.21,0.75,0.28,3.61,0.26,4.41c-0.12,4.67-0.07,6.79,0.26,10.66"/>
			<path class="st23" d="M636.85,558.11c25.29-25.29,47.15-45.4,71.22-71.22c14.9-15.98,39.7-45.94,54.6-61.9"/>
			<path class="st23" d="M495.18,508.19c-0.78-25.79,0.38-51.56,0.68-77.34c0.54-47.12,0.54-95.71,0.54-148.96"/>
			<path class="st23" d="M242.37,422.54c20.41,18.65,38.75,34.75,51.04,44.37c24.61,19.31,48.59,42.62,74.54,62.59"/>
			<line class="st20" x1="515.4" y1="88.72" x2="485.28" y2="202.06"/>
			<path class="st20" d="M537.68,190.23c6.93-6.6,13.86-13.18,20.79-19.78c7.12-6.77,15.39-15.39,21.64-22.96
				c-3.68-3.94-16.6-17.33-18.98-19.97c-5.23-5.85-13.3-14.31-19.28-20.3"/>
			<path class="st20" d="M462.29,190.23c-6.93-6.6-13.86-13.18-20.79-19.78c-7.12-6.77-15.37-15.39-21.62-22.96
				c3.68-3.94,16.6-17.33,18.95-19.97c5.23-5.85,13.32-14.31,19.31-20.3"/>
		</g>
	</g>
	<g>
		<defs>
			<rect id="SVGID_00000073692474975852763120000017599791428291769475_" x="440.17" y="596.27" width="162.41" height="157.53"/>
		</defs>
		<clipPath id="SVGID_00000013162695557012319490000002802067380100895127_">
			<use xlink:href="#SVGID_00000073692474975852763120000017599791428291769475_"  style="overflow:visible;"/>
		</clipPath>
		<g style="clip-path:url(#SVGID_00000013162695557012319490000002802067380100895127_);">
			<path d="M591.62,649c0.13,4.03,0.91,9.53-0.38,13.02c-0.16,0.38-0.35,0.79-0.69,1.04c-0.38,0.25-0.88,0.25-1.35,0.25
				c-3.3-0.09-6.61-0.16-9.91-0.25c-0.57,0-1.2-0.03-1.67-0.38c-0.6-0.44-0.72-1.29-0.79-2.04c-0.5-4.78-1.01-9.59-1.51-14.41
				c-0.44-4.12-2.58-8.97-7.64-9c-9.75-0.06-19.57,1.35-29.26,0.6c-4.84-0.41-13.4-0.22-16.26-4.94c-1.16-1.95-1.26-4.4-2.39-6.39
				c-1.38,0.88-1.64,2.74-2.2,4.25c-0.06,0.09-0.09,0.19-0.16,0.31c-0.98,2.23-2.99,3.96-5.22,5c-2.33,1.1-4.94,1.54-7.49,1.82
				c-4.69,0.5-9.22,0.09-13.87,0.13c-4.37,0.06-8.84,1.01-13.21,1.38c-6.1,0.5-9.31,3.24-9,9.56c0.03,0.85,0,1.73,0,2.58
				c-0.03,4.25,0.75,9.94-1.35,13.87c-2.26,4.25-10.26,4.4-14.03,2.23c-2.77-1.54-1.64-8.49-1.7-11.07
				c-0.13-4.66-0.22-9.28-0.19-13.94c0.03-9.22,11.29-20.51,20.42-20.86c5.95-0.22,11.89-0.35,17.81-0.82
				c4.18-0.31,11.2-0.13,14.47-3.21c2.3-2.14,3.4-5.06,4.15-8.05c0.6-2.39-0.41-6.29,2.2-7.2c3.59-1.23,7.42-0.94,11.14-0.91
				c2.36,0.03,7.33-1.04,8.87,1.29c0.66,1.04,0.69,2.36,0.66,3.62c-0.06,5.44,0.31,11.2,6.17,12.9c6.35,1.82,11.99,1.82,18.53,1.1
				c7.64-0.82,17.05-1.2,24.35,1.48c4.09,1.54,7.14,5.35,8.59,9.41C590.71,637.01,591.37,642.33,591.62,649z"/>
			<path d="M589.57,694.64c2.55,1.64,1.92,6.51,1.86,9.37c-0.13,8.46-0.03,13.81-2.64,22.02c-1.29,4.09-4.22,8.02-8.24,9.69
				c-7.17,2.96-16.61,2.93-24.25,2.39c-6.1-0.44-14.03-1.35-19.13,3.08c-2.3,1.98-3.78,5.16-4.94,7.9c-1.07,2.52-0.63,6.1-3.15,7.55
				c-1.64,0.94-6.61,0.98-8.59,1.26c-2.23,0.31-4.37-0.28-6.64-0.38c-0.85-0.03-1.76-0.13-2.3-0.76c-0.28-0.38-0.38-0.88-0.47-1.32
				c-0.98-5-2.36-9.19-6.39-12.68c-3.4-2.96-10.38-2.49-14.57-2.67c-5.95-0.22-11.89-0.16-17.84-0.16
				c-9.12,0-20.79-10.85-21.2-20.07c-0.28-6.83-0.63-13.75,0.41-20.54c0.53-3.37,0.57-4.94,4.12-5.25c2.74-0.28,5.47,0.41,8.18,0.44
				c6.01,0.13,4.06,11.77,4.25,15.79c0.03,0.88,0.09,1.73,0.09,2.61c-0.09,6.32,3.24,8.93,9.34,9.22c4.37,0.19,8.9,0.98,13.28,0.88
				c4.66-0.13,9.15-0.72,13.84-0.38c2.58,0.19,5.19,0.53,7.55,1.54c1.64,0.69,3.21,1.73,4.34,3.15c0.31,0.38,0.6,1.04,0.88,1.76
				c0.41,1.07,0.85,2.2,1.45,2.55c2.86,1.57,3.87-2.61,5.06-4.18c2.04-2.77,4.5-4.37,7.86-5.25c11.45-2.93,24.16-0.72,35.83-1.26
				c5.03-0.22,7.02-5.13,7.3-9.28c0.31-4.81,0.63-9.63,0.98-14.44c0.03-0.76,0.13-1.6,0.72-2.08c0.44-0.38,1.07-0.41,1.64-0.44
				C581.24,694.52,586.84,692.88,589.57,694.64z"/>
			<path d="M556.48,662.02c5.66,1.2,5.1,11.32,4.91,15.07c-0.22,3.84-0.41,7.71-0.6,11.58c-0.09,1.7-0.28,3.65-1.7,4.75
				c-0.63,0.5-1.38,0.76-2.17,0.98c-6.07,1.76-12.61,1.04-18.94,0.25c-7.49-0.88-8.59-6.89-8.46-12.9
				c0.03-3.77-0.47-7.64,0.19-11.29c0.5-2.71,2.17-7.05,4-7.36C541.22,661.86,549.31,660.51,556.48,662.02z"/>
			<path d="M513.85,670.67c0.85,5.79-0.09,12.96-0.63,16.23c-1.57,9.22-11.45,7.99-18.47,7.42c-5.47-0.44-11.92,2.33-13.21-4.62
				c-1.38-7.42-1.26-15.79-0.16-23.22c0.09-0.6,0.22-1.23,0.6-1.7c0.44-0.5,1.1-0.72,1.76-0.88c7.33-1.92,15.04-1.98,22.62-1.82
				c0.98,0.03,1.98,0.06,2.89,0.44C511.97,663.66,513.29,666.87,513.85,670.67z"/>
		</g>
	</g>
</g>
</svg>
