<svg width="50" height="50" viewBox="0 0 50 50" fill="none" xmlns="http://www.w3.org/2000/svg">
<g clip-path="url(#clip0_5_213)">
<path d="M38.7188 20H28.7188V30H38.7188V20Z" fill="white"/>
<path d="M21.2188 20H11.2188V30H21.2188V20Z" fill="white"/>
<path d="M45 37.4375C44.9531 38.6094 44.4844 40 42.5 40H32.5938C31.8281 39.9687 28.1719 39.9375 25.4063 42.5156C25.2656 42.6563 25.125 42.7969 25 42.9531C24.8594 42.8125 24.7344 42.6563 24.5937 42.5156C21.8281 39.9375 18.1719 39.9531 17.4063 40H7.5C5.51563 40 5.04688 38.6094 5 37.5V30H0V37.5312C0.03125 40.5312 2.0625 45 7.5 45H17.4688H17.625C17.6406 45 19.8281 44.9063 21.2031 46.2031C22.0469 47 22.4844 48.2812 22.4844 50H27.5469C27.5469 48.2812 27.9844 47 28.8281 46.2031C30.2031 44.9063 32.375 45 32.375 45H42.5156C47.9531 45 49.9844 40.5312 50.0156 37.5V30H45.0156V37.4375H45Z" fill="white"/>
<path d="M5 12.5625C5.04688 11.3906 5.51563 10 7.5 10H17.4063C18.1719 10.0313 21.8281 10.0625 24.5937 7.48438C24.7344 7.34375 24.875 7.20312 25 7.04687C25.1406 7.1875 25.2656 7.34375 25.4063 7.48438C28.1719 10.0625 31.8281 10.0469 32.5938 10H42.5C44.4844 10 44.9531 11.3906 45 12.5V20H50V12.4688C49.9687 9.46875 47.9375 5 42.5 5H32.5312H32.375C32.3594 5 30.1719 5.09375 28.7969 3.79687C27.9531 3 27.5312 1.71875 27.5312 0H22.4688C22.4688 1.71875 22.0313 3 21.1875 3.79687C19.8125 5.09375 17.6406 5 17.6406 5H7.5C2.0625 5 0.03125 9.46875 0 12.5V20H5V12.5625Z" fill="white"/>
</g>
<defs>
<clipPath id="clip0_5_213">
<rect width="50" height="50" fill="white"/>
</clipPath>
</defs>
</svg>
