<svg width="300" height="300" viewBox="0 0 300 300" fill="none" xmlns="http://www.w3.org/2000/svg">
<path d="M254.925 52.7971C254.124 52.7971 252.828 52.8691 251.502 53.0311C251.181 53.0761 250.86 53.1181 250.542 53.1781C247.557 53.6431 244.38 54.2401 241.497 55.4221C238.395 56.8051 235.902 58.1761 233.733 59.7181C231.33 61.3801 228.825 63.2431 226.77 65.5021C224.397 68.0221 222.735 70.0921 221.379 72.2311C220.635 73.3081 219.399 75.7261 218.481 78.1741C217.665 80.3581 217.113 82.2091 216.717 83.9851C216.075 86.8981 215.973 88.2961 215.829 90.9031C215.712 92.9281 215.799 95.0551 216.048 97.0501C216.237 98.6971 216.471 100.11 216.705 101.157C217.185 103.341 217.869 106.167 218.847 108.585C220.26 112.008 222.255 115.197 225.126 118.608C226.074 119.745 230.196 123.807 233.865 126.27C234.243 126.531 235.818 127.407 236.37 127.683C239.676 129.315 243.318 130.683 247.209 131.748C249.729 132.33 252.468 132.579 256.065 132.534C256.821 132.534 257.58 132.504 258.336 132.432C259.122 132.402 259.881 132.345 260.637 132.243C264.207 131.835 266.901 131.253 269.376 130.335C273.048 128.805 276.498 126.999 279.588 124.944L279.675 124.899C280.14 124.638 281.643 123.441 281.874 123.237C285.225 120.324 288.78 115.779 289.581 114.54C292.014 110.781 293.586 107.373 294.549 103.791C295.206 101.373 295.524 98.5771 295.758 96.1591C295.845 95.0221 295.89 93.5221 295.875 92.0221C295.875 89.9971 295.686 87.8851 295.32 85.8751C294.825 83.2681 294.549 81.8971 293.571 79.1311C292.959 77.4121 292.158 75.6481 291.081 73.5811C289.872 71.2801 288.327 69.0361 287.499 68.0761C285.852 66.0811 283.944 64.2451 281.292 62.0611C278.946 60.0661 276.237 58.5511 273.645 57.1951C271.299 55.9411 268.575 54.8641 265.341 53.8891C262.368 53.1031 259.149 52.9141 256.119 52.8121C255.798 52.8121 255.477 52.7971 255.144 52.7971C255.087 52.7971 254.997 52.7971 254.925 52.7971Z" stroke="#101111" stroke-width="2" stroke-miterlimit="10" stroke-linecap="round" stroke-linejoin="round"/>
<mask id="mask0_1_4" style="mask-type:luminance" maskUnits="userSpaceOnUse" x="215" y="52" width="81" height="81">
<path d="M254.925 52.7971C254.124 52.7971 252.828 52.8691 251.502 53.0311C251.181 53.0761 250.86 53.1181 250.542 53.1781C247.557 53.6431 244.38 54.2401 241.497 55.4221C238.395 56.8051 235.902 58.1761 233.733 59.7181C231.33 61.3801 228.825 63.2431 226.77 65.5021C224.397 68.0221 222.735 70.0921 221.379 72.2311C220.635 73.3081 219.399 75.7261 218.481 78.1741C217.665 80.3581 217.113 82.2091 216.717 83.9851C216.075 86.8981 215.973 88.2961 215.829 90.9031C215.712 92.9281 215.799 95.0551 216.048 97.0501C216.237 98.6971 216.471 100.11 216.705 101.157C217.185 103.341 217.869 106.167 218.847 108.585C220.26 112.008 222.255 115.197 225.126 118.608C226.074 119.745 230.196 123.807 233.865 126.27C234.243 126.531 235.818 127.407 236.37 127.683C239.676 129.315 243.318 130.683 247.209 131.748C249.729 132.33 252.468 132.579 256.065 132.534C256.821 132.534 257.58 132.504 258.336 132.432C259.122 132.402 259.881 132.345 260.637 132.243C264.207 131.835 266.901 131.253 269.376 130.335C273.048 128.805 276.498 126.999 279.588 124.944L279.675 124.899C280.14 124.638 281.643 123.441 281.874 123.237C285.225 120.324 288.78 115.779 289.581 114.54C292.014 110.781 293.586 107.373 294.549 103.791C295.206 101.373 295.524 98.5771 295.758 96.1591C295.845 95.0221 295.89 93.5221 295.875 92.0221C295.875 89.9971 295.686 87.8851 295.32 85.8751C294.825 83.2681 294.549 81.8971 293.571 79.1311C292.959 77.4121 292.158 75.6481 291.081 73.5811C289.872 71.2801 288.327 69.0361 287.499 68.0761C285.852 66.0811 283.944 64.2451 281.292 62.0611C278.946 60.0661 276.237 58.5511 273.645 57.1951C271.299 55.9411 268.575 54.8641 265.341 53.8891C262.368 53.1031 259.149 52.9141 256.119 52.8121C255.798 52.8121 255.477 52.7971 255.144 52.7971C255.087 52.7971 254.997 52.7971 254.925 52.7971Z" fill="white"/>
</mask>
<g mask="url(#mask0_1_4)">
<path d="M270.483 132.303C270.459 128.388 270.096 124.533 269.163 121.152C268.512 116.427 265.152 111.333 260.277 110.283C267.855 106.38 265.578 94.2421 257.157 94.0651H257.082H256.536H256.461C248.04 94.2421 245.763 106.377 253.341 110.283C248.466 111.333 245.106 116.427 244.455 121.152C243.525 124.533 243.159 128.391 243.135 132.303L243.078 132.555C243.156 132.576 243.234 132.591 243.312 132.609C245.031 132.984 268.59 132.984 270.309 132.609C270.387 132.594 270.465 132.576 270.543 132.555L270.483 132.303Z" stroke="#101111" stroke-width="2" stroke-miterlimit="10" stroke-linecap="round" stroke-linejoin="round"/>
</g>
<mask id="mask1_1_4" style="mask-type:luminance" maskUnits="userSpaceOnUse" x="215" y="52" width="81" height="81">
<path d="M254.925 52.7971C254.124 52.7971 252.828 52.8691 251.502 53.0311C251.181 53.0761 250.86 53.1181 250.542 53.1781C247.557 53.6431 244.38 54.2401 241.497 55.4221C238.395 56.8051 235.902 58.1761 233.733 59.7181C231.33 61.3801 228.825 63.2431 226.77 65.5021C224.397 68.0221 222.735 70.0921 221.379 72.2311C220.635 73.3081 219.399 75.7261 218.481 78.1741C217.665 80.3581 217.113 82.2091 216.717 83.9851C216.075 86.8981 215.973 88.2961 215.829 90.9031C215.712 92.9281 215.799 95.0551 216.048 97.0501C216.237 98.6971 216.471 100.11 216.705 101.157C217.185 103.341 217.869 106.167 218.847 108.585C220.26 112.008 222.255 115.197 225.126 118.608C226.074 119.745 230.196 123.807 233.865 126.27C234.243 126.531 235.818 127.407 236.37 127.683C239.676 129.315 243.318 130.683 247.209 131.748C249.729 132.33 252.468 132.579 256.065 132.534C256.821 132.534 257.58 132.504 258.336 132.432C259.122 132.402 259.881 132.345 260.637 132.243C264.207 131.835 266.901 131.253 269.376 130.335C273.048 128.805 276.498 126.999 279.588 124.944L279.675 124.899C280.14 124.638 281.643 123.441 281.874 123.237C285.225 120.324 288.78 115.779 289.581 114.54C292.014 110.781 293.586 107.373 294.549 103.791C295.206 101.373 295.524 98.5771 295.758 96.1591C295.845 95.0221 295.89 93.5221 295.875 92.0221C295.875 89.9971 295.686 87.8851 295.32 85.8751C294.825 83.2681 294.549 81.8971 293.571 79.1311C292.959 77.4121 292.158 75.6481 291.081 73.5811C289.872 71.2801 288.327 69.0361 287.499 68.0761C285.852 66.0811 283.944 64.2451 281.292 62.0611C278.946 60.0661 276.237 58.5511 273.645 57.1951C271.299 55.9411 268.575 54.8641 265.341 53.8891C262.368 53.1031 259.149 52.9141 256.119 52.8121C255.798 52.8121 255.477 52.7971 255.144 52.7971C255.087 52.7971 254.997 52.7971 254.925 52.7971Z" fill="white"/>
</mask>
<g mask="url(#mask1_1_4)">
<path d="M270.747 131.073C281.928 128.412 288.819 124.725 290.409 124.377C290.481 124.362 290.553 124.347 290.625 124.329L290.571 124.095C290.55 120.477 290.211 116.91 289.35 113.784C288.75 109.416 285.642 104.706 281.133 103.734C288.141 100.125 286.035 88.9051 278.247 88.7401H278.178H277.674H277.605C269.817 88.9051 267.714 100.125 274.719 103.734C270.21 104.703 267.105 109.413 266.502 113.784" stroke="#101111" stroke-width="2" stroke-miterlimit="10" stroke-linecap="round" stroke-linejoin="round"/>
</g>
<mask id="mask2_1_4" style="mask-type:luminance" maskUnits="userSpaceOnUse" x="215" y="52" width="81" height="81">
<path d="M254.925 52.7971C254.124 52.7971 252.828 52.8691 251.502 53.0311C251.181 53.0761 250.86 53.1181 250.542 53.1781C247.557 53.6431 244.38 54.2401 241.497 55.4221C238.395 56.8051 235.902 58.1761 233.733 59.7181C231.33 61.3801 228.825 63.2431 226.77 65.5021C224.397 68.0221 222.735 70.0921 221.379 72.2311C220.635 73.3081 219.399 75.7261 218.481 78.1741C217.665 80.3581 217.113 82.2091 216.717 83.9851C216.075 86.8981 215.973 88.2961 215.829 90.9031C215.712 92.9281 215.799 95.0551 216.048 97.0501C216.237 98.6971 216.471 100.11 216.705 101.157C217.185 103.341 217.869 106.167 218.847 108.585C220.26 112.008 222.255 115.197 225.126 118.608C226.074 119.745 230.196 123.807 233.865 126.27C234.243 126.531 235.818 127.407 236.37 127.683C239.676 129.315 243.318 130.683 247.209 131.748C249.729 132.33 252.468 132.579 256.065 132.534C256.821 132.534 257.58 132.504 258.336 132.432C259.122 132.402 259.881 132.345 260.637 132.243C264.207 131.835 266.901 131.253 269.376 130.335C273.048 128.805 276.498 126.999 279.588 124.944L279.675 124.899C280.14 124.638 281.643 123.441 281.874 123.237C285.225 120.324 288.78 115.779 289.581 114.54C292.014 110.781 293.586 107.373 294.549 103.791C295.206 101.373 295.524 98.5771 295.758 96.1591C295.845 95.0221 295.89 93.5221 295.875 92.0221C295.875 89.9971 295.686 87.8851 295.32 85.8751C294.825 83.2681 294.549 81.8971 293.571 79.1311C292.959 77.4121 292.158 75.6481 291.081 73.5811C289.872 71.2801 288.327 69.0361 287.499 68.0761C285.852 66.0811 283.944 64.2451 281.292 62.0611C278.946 60.0661 276.237 58.5511 273.645 57.1951C271.299 55.9411 268.575 54.8641 265.341 53.8891C262.368 53.1031 259.149 52.9141 256.119 52.8121C255.798 52.8121 255.477 52.7971 255.144 52.7971C255.087 52.7971 254.997 52.7971 254.925 52.7971Z" fill="white"/>
</mask>
<g mask="url(#mask2_1_4)">
<path d="M247.284 113.784C246.684 109.416 243.576 104.706 239.067 103.734C246.075 100.125 243.969 88.9051 236.181 88.7401H236.112H235.608H235.539C227.751 88.9051 225.648 100.125 232.653 103.734C228.144 104.703 225.039 109.413 224.436 113.784C223.575 116.91 223.239 120.477 223.215 124.095L223.161 124.329C223.233 124.347 223.305 124.362 223.377 124.377C224.529 124.629 235.866 128.904 242.64 131.115" stroke="#101111" stroke-width="2" stroke-miterlimit="10" stroke-linecap="round" stroke-linejoin="round"/>
</g>
<path d="M213.072 293.466C213.072 292.956 212.958 292.371 212.739 291.72C212.448 290.85 207.894 282.363 202.203 271.863L202.443 271.737C202.458 263.259 202.563 253.116 202.563 253.116C202.767 241.17 203.001 227.289 203.079 221.73C203.106 220.104 203.1 206.262 202.917 195.804L203.49 195.789C203.49 195.789 213.399 195.738 214.338 195.789C215.667 195.852 218.58 196.488 218.58 199.947C218.58 203.412 218.331 281.601 218.331 285.327C218.331 289.053 217.248 293.496 214.053 293.496L213.072 293.466Z" fill="#101111"/>
<path d="M109.953 195.786L110.928 195.792C110.856 198.084 110.865 210.219 110.913 222.057L110.862 222.078C109.548 218.748 107.82 215.367 104.37 215.367C101.535 215.367 97.5751 215.346 94.8991 215.325V215.22C94.8721 206.817 94.8571 200.85 94.8571 199.944C94.8571 196.485 97.7701 195.849 99.0991 195.786C100.047 195.738 109.953 195.786 109.953 195.786Z" fill="#101111"/>
<path d="M265.185 72.3301C265.356 72.4651 265.368 72.6061 265.311 72.7471C265.248 72.7741 265.149 72.7741 265.029 72.7321C264.894 72.6751 264.774 72.5761 264.66 72.4621C264.675 72.4471 264.681 72.4351 264.696 72.4201C264.81 72.2731 265.023 72.2161 265.185 72.3301Z" fill="#101111"/>
<path d="M265.341 72.1321C265.512 72.3451 265.512 72.6541 265.314 72.7471C265.371 72.6061 265.356 72.4651 265.188 72.3301C265.026 72.2161 264.813 72.2731 264.699 72.4231C264.684 72.4381 264.678 72.4501 264.663 72.4651C264.492 72.2881 264.339 72.0841 264.183 71.9491C262.845 70.6351 261.651 69.1981 260.364 67.8481C260.031 67.5301 260.484 67.0141 260.838 67.3171C261.735 68.2081 262.515 69.2041 263.391 70.1101C264.06 70.8151 264.684 71.4391 265.341 72.1321Z" fill="#101111"/>
<path d="M262.245 75.9211C261.699 76.4791 261.141 77.0251 260.577 77.5471C260.406 77.7391 260.04 77.9371 259.833 77.7031C259.707 77.4481 259.905 77.1811 260.094 77.0251C260.406 76.7341 260.715 76.4461 261.021 76.1491C262.032 75.1321 263.007 74.0851 264.054 73.1011C264.273 72.8881 264.492 72.6781 264.663 72.4651C264.777 72.5791 264.897 72.6781 265.032 72.7351C265.152 72.7771 265.251 72.7771 265.314 72.7501C265.215 73.0111 264.861 73.2661 264.705 73.4581C263.862 74.2591 263.043 75.0811 262.245 75.9211Z" fill="#101111"/>
<path d="M257.754 65.8381C257.583 66.4111 254.592 77.6071 254.325 78.6181C254.289 78.8221 254.184 79.0981 253.986 79.2181C253.893 79.2691 253.788 79.2811 253.683 79.2541C253.677 79.2541 253.668 79.2481 253.656 79.2481C253.65 79.2481 253.641 79.2421 253.641 79.2331C253.302 78.9931 253.458 78.5131 253.578 78.1231C253.626 77.9731 253.671 77.8411 253.683 77.7271C253.776 77.3521 254.898 73.3411 255.789 70.0411C256.368 67.8841 256.842 65.9671 256.914 65.7631C256.935 65.5591 257.127 65.3881 257.337 65.3881C257.571 65.3941 257.754 65.5801 257.76 65.8201C257.76 65.8231 257.76 65.8291 257.754 65.8381Z" fill="#101111"/>
<path d="M245.637 72.7471C245.709 72.7741 245.799 72.7741 245.913 72.7321C246.048 72.6751 246.174 72.5701 246.282 72.4561C246.453 72.6691 246.678 72.8881 246.891 73.1011C247.938 74.0851 248.922 75.1321 249.924 76.1491C250.227 76.4461 250.539 76.7371 250.851 77.0251C251.049 77.1811 251.247 77.4481 251.112 77.7031C250.914 77.9371 250.545 77.7391 250.377 77.5471C249.804 77.0251 249.246 76.4791 248.709 75.9211C247.911 75.0781 247.083 74.2591 246.249 73.4521C246.09 73.2631 245.736 73.0081 245.637 72.7471Z" fill="#101111"/>
<path d="M246.282 72.4561C246.177 72.5701 246.048 72.6751 245.913 72.7321C245.799 72.7741 245.709 72.7741 245.637 72.7471H245.631C245.574 72.6061 245.595 72.4651 245.757 72.3301C245.928 72.2161 246.132 72.2731 246.252 72.4231C246.261 72.4351 246.276 72.4411 246.282 72.4561Z" fill="#101111"/>
<path d="M246.255 72.4201C246.135 72.2701 245.931 72.2161 245.76 72.3271C245.598 72.4621 245.577 72.6031 245.634 72.7441C245.442 72.6511 245.442 72.3421 245.613 72.1291C246.264 71.4361 246.894 70.8151 247.557 70.1071C248.442 69.2011 249.219 68.2051 250.11 67.3141C250.464 67.0111 250.923 67.5271 250.584 67.8451C249.297 69.1951 248.103 70.6321 246.765 71.9461C246.615 72.0811 246.462 72.2791 246.285 72.4561C246.276 72.4411 246.261 72.4351 246.255 72.4201Z" fill="#101111"/>
<path d="M111.756 254.604C111.183 255.417 110.814 260.955 115.668 266.634C120.528 272.319 128.802 273.048 131.487 273.318C129.831 273.63 130.971 276.798 130.971 276.798C130.971 276.798 129.069 277.512 126.213 277.449C123.363 277.386 121.728 275.022 118.908 273.156C116.094 271.29 114.126 272.271 113.505 272.556C112.89 272.838 114.369 273.531 115.641 273.906C116.913 274.275 118.017 275.244 119.607 277.272C121.191 279.303 123.363 280.116 125.859 280.92C128.349 281.727 131.757 280.707 132.075 280.701C132.393 280.701 132.774 281.889 133.185 282.744C133.596 283.599 134.295 286.047 134.259 286.584C134.223 287.115 133.155 286.875 126.87 285.225C120.582 283.578 112.329 277.248 108.003 273.153C103.683 269.058 95.175 255.996 100.689 246.003C106.206 236.004 118.059 235.521 120.372 235.233C124.212 234.744 128.661 234.972 132.876 236.031C137.085 237.093 139.842 238.137 143.895 239.898C145.593 240.633 148.563 242.346 150.141 243.294C151.371 244.029 160.056 251.442 162.786 256.158C164.094 258.414 165.12 260.592 165.459 262.854C166.293 268.356 165.303 273.597 162.9 278.115C162.525 278.823 162.114 279.516 161.592 280.137C160.983 280.851 160.233 281.466 159.477 282.075C157.617 283.575 155.7 285.06 153.288 286.05C152.757 286.269 151.548 286.509 150.96 286.107C150.627 285.888 150.471 285.555 150.339 285.252C149.157 282.621 148.308 279.927 146.889 277.317C145.977 275.661 144.858 273.852 142.872 272.826C145.779 272.436 147.279 272.07 149.688 271.278C150.396 271.053 151.98 270.069 152.46 269.622C153.93 268.242 154.215 266.064 154.059 264.177C153.711 260.013 151.209 256.065 146.832 252.693C146.718 251.271 146.577 249.786 145.671 248.364C145.38 247.911 145.026 247.479 144.675 247.05C144.357 246.675 143.622 245.889 143.31 245.508C141.798 245.466 140.502 245.925 139.257 246.363C138.81 246.525 138.414 246.738 138.018 246.957C137.184 247.416 136.716 247.755 135.876 248.223C134.637 248.109 131.943 247.248 129.279 247.446C127.674 247.566 124.86 247.524 123.402 247.92C122.022 248.301 120.855 248.676 119.412 248.982C116.655 247.185 113.259 246.18 110.205 246.189C109.815 248.262 110.43 250.644 111.915 252.831C112.071 253.05 112.233 253.284 112.275 253.509C112.359 253.938 111.99 254.271 111.756 254.604Z" fill="black"/>
<path d="M42.252 102.957C42.981 102.957 43.71 103.515 43.71 104.478C43.71 105.474 42.945 106.077 41.985 105.879C41.094 105.675 40.761 104.811 40.923 104.082C41.121 103.32 41.688 102.957 42.252 102.957Z" fill="black"/>
<path d="M203.49 195.786C203.49 195.786 213.399 195.735 214.338 195.786C215.667 195.849 218.58 196.485 218.58 199.944C218.58 203.409 218.331 281.598 218.331 285.324C218.331 289.05 217.248 293.493 214.053 293.493" stroke="#101111" stroke-width="2" stroke-miterlimit="10" stroke-linecap="round" stroke-linejoin="round"/>
<path d="M109.953 195.786C109.953 195.786 100.044 195.735 99.105 195.786C97.776 195.849 94.863 196.485 94.863 199.944C94.863 200.85 94.878 206.817 94.905 215.22" stroke="#101111" stroke-width="2" stroke-miterlimit="10" stroke-linecap="round" stroke-linejoin="round"/>
<path d="M4.65901 94.77C4.65901 95.568 4.73101 96.87 4.89301 98.193C4.93501 98.511 4.97701 98.838 5.04301 99.156C5.50201 102.141 6.10502 105.315 7.28402 108.201C8.66402 111.306 10.035 113.796 11.577 115.965C13.239 118.371 15.105 120.873 17.361 122.931C19.878 125.301 21.951 126.963 24.093 128.319C25.167 129.063 27.588 130.299 30.033 131.22C32.217 132.033 34.071 132.585 35.847 132.981C38.76 133.626 40.161 133.725 42.762 133.872C44.793 133.986 46.914 133.899 48.915 133.653C50.556 133.461 51.969 133.23 53.016 132.996C55.2 132.516 58.029 131.829 60.45 130.854C63.873 129.441 67.062 127.446 70.47 124.575C71.61 123.633 75.669 119.511 78.135 115.842C78.396 115.461 79.266 113.889 79.542 113.331C81.177 110.028 82.548 106.386 83.607 102.498C84.186 99.972 84.435 97.236 84.393 93.636C84.393 92.88 84.366 92.124 84.294 91.365C84.267 90.579 84.201 89.823 84.102 89.067C83.691 85.497 83.112 82.8 82.194 80.325C80.667 76.656 78.864 73.203 76.806 70.113L76.764 70.029C76.503 69.561 75.306 68.055 75.102 67.824C72.189 64.479 67.647 60.921 66.402 60.123C62.646 57.69 59.238 56.112 55.653 55.152C53.235 54.501 50.442 54.177 48.021 53.949C46.881 53.856 45.384 53.814 43.884 53.829C41.862 53.829 39.747 54.021 37.737 54.381C35.127 54.876 33.756 55.152 30.99 56.127C29.271 56.742 27.51 57.54 25.437 58.623C23.139 59.832 20.898 61.374 19.935 62.202C17.94 63.849 16.101 65.76 13.917 68.412C11.922 70.761 10.41 73.47 9.05102 76.056C7.80002 78.405 6.71701 81.126 5.74201 84.36C4.95601 87.336 4.76702 90.555 4.66802 93.582C4.66802 93.906 4.65302 94.227 4.65302 94.557C4.65902 94.605 4.65901 94.698 4.65901 94.77Z" stroke="#101111" stroke-width="2" stroke-miterlimit="10" stroke-linecap="round" stroke-linejoin="round"/>
<path d="M190.449 43.017C190.449 42.219 190.377 40.923 190.215 39.594C190.173 39.276 190.131 38.958 190.074 38.631C189.606 35.646 189.006 32.472 187.824 29.586C186.444 26.481 185.073 23.991 183.531 21.822C181.869 19.416 180.003 16.914 177.747 14.862C175.23 12.486 173.157 10.824 171.015 9.47403C169.941 8.73003 167.52 7.48803 165.075 6.57303C162.891 5.75403 161.043 5.20203 159.261 4.80603C156.348 4.17003 154.953 4.06203 152.346 3.92103C150.324 3.80103 148.194 3.89403 146.199 4.14003C144.552 4.32303 143.136 4.55703 142.089 4.79103C139.905 5.27103 137.076 5.95803 134.655 6.93303C131.232 8.34603 128.043 10.341 124.635 13.212C123.495 14.16 119.436 18.282 116.976 21.954C116.715 22.329 115.836 23.907 115.563 24.459C113.928 27.768 112.563 31.41 111.498 35.301C110.919 37.818 110.67 40.557 110.712 44.154C110.712 44.91 110.739 45.666 110.811 46.425C110.847 47.211 110.904 47.973 111.003 48.729C111.414 52.293 111.993 54.987 112.911 57.471C114.438 61.14 116.25 64.593 118.299 67.677L118.341 67.77C118.602 68.238 119.799 69.735 120.003 69.969C122.916 73.32 127.464 76.872 128.703 77.67C132.459 80.103 135.867 81.681 139.452 82.641C141.87 83.298 144.663 83.616 147.084 83.85C148.224 83.934 149.721 83.976 151.221 83.964C153.252 83.964 155.358 83.781 157.368 83.412C159.978 82.917 161.349 82.641 164.115 81.666C165.834 81.051 167.595 80.253 169.668 79.176C171.966 77.967 174.216 76.419 175.176 75.591C177.171 73.944 179.001 72.033 181.188 69.381C183.183 67.041 184.704 64.332 186.054 61.737C187.305 59.388 188.388 56.667 189.363 53.433C190.149 50.463 190.338 47.244 190.437 44.211C190.437 43.893 190.452 43.575 190.452 43.236C190.449 43.179 190.449 43.092 190.449 43.017Z" stroke="#101111" stroke-width="2" stroke-miterlimit="10" stroke-linecap="round" stroke-linejoin="round"/>
<path d="M22.578 110.838L21.927 77.031H65.577" stroke="#1D1D1B" stroke-width="2" stroke-miterlimit="10" stroke-linecap="round" stroke-linejoin="round"/>
<path d="M23.214 111.543C23.214 111.543 34.755 111.501 37.485 111.438L37.548 125.286C37.548 125.286 47.655 111.864 48 111.573C51.459 111.573 66.105 111.24 66.105 111.24L65.745 77.295" stroke="#1D1D1B" stroke-width="2" stroke-miterlimit="10" stroke-linecap="round" stroke-linejoin="round"/>
<path d="M242.337 80.703L241.941 62.583H268.947" stroke="#101111" stroke-width="2" stroke-miterlimit="10" stroke-linecap="round" stroke-linejoin="round"/>
<path d="M242.733 81.141C242.733 81.141 249.876 81.114 251.565 81.078L251.607 89.643C251.607 89.643 257.859 81.339 258.072 81.156C260.214 81.156 269.274 80.952 269.274 80.952L269.055 62.748" stroke="#101111" stroke-width="2" stroke-miterlimit="10" stroke-linecap="round" stroke-linejoin="round"/>
<path d="M264.663 72.465C264.492 72.288 264.339 72.084 264.183 71.949C262.845 70.635 261.651 69.198 260.364 67.848C260.031 67.53 260.484 67.014 260.838 67.317C261.735 68.208 262.515 69.204 263.391 70.11C264.063 70.818 264.684 71.439 265.344 72.132C265.515 72.345 265.515 72.654 265.317 72.747" stroke="#101111" stroke-miterlimit="10"/>
<path d="M265.314 72.747C265.215 73.008 264.861 73.263 264.705 73.455C263.862 74.262 263.043 75.081 262.245 75.924C261.699 76.482 261.141 77.028 260.577 77.55C260.406 77.742 260.04 77.94 259.833 77.706C259.707 77.451 259.905 77.184 260.094 77.028C260.406 76.737 260.715 76.449 261.021 76.152C262.032 75.135 263.007 74.088 264.054 73.104C264.273 72.891 264.492 72.681 264.663 72.468C264.678 72.453 264.684 72.441 264.699 72.426C264.813 72.276 265.023 72.222 265.188 72.333C265.356 72.465 265.368 72.606 265.314 72.747Z" stroke="#101111" stroke-miterlimit="10"/>
<path d="M246.282 72.456C246.459 72.279 246.615 72.081 246.762 71.946C248.1 70.632 249.294 69.195 250.581 67.845C250.92 67.527 250.461 67.011 250.107 67.314C249.216 68.205 248.439 69.201 247.554 70.107C246.888 70.815 246.261 71.436 245.61 72.129C245.439 72.342 245.439 72.651 245.631 72.744" stroke="#101111" stroke-miterlimit="10"/>
<path d="M245.637 72.747C245.736 73.008 246.09 73.263 246.246 73.455C247.08 74.262 247.908 75.081 248.706 75.924C249.243 76.482 249.801 77.028 250.374 77.55C250.545 77.742 250.911 77.94 251.109 77.706C251.244 77.451 251.046 77.184 250.848 77.028C250.536 76.737 250.227 76.449 249.921 76.152C248.916 75.135 247.935 74.088 246.888 73.104C246.675 72.891 246.45 72.672 246.279 72.459C246.273 72.444 246.258 72.438 246.252 72.423C246.132 72.273 245.928 72.219 245.757 72.33C245.595 72.465 245.574 72.606 245.631 72.747H245.637Z" stroke="#101111" stroke-miterlimit="10"/>
<path d="M202.443 271.734C202.458 263.256 202.563 253.113 202.563 253.113C202.767 241.167 203.001 227.286 203.079 221.727C203.106 220.101 203.1 206.259 202.917 195.801C202.803 189.528 202.626 184.464 202.359 183.978C201.639 182.676 175.308 155.187 174.297 155.046C173.286 154.896 153.03 155.337 150.288 155.478C147.537 155.628 116.583 155.916 114.27 155.769C111.951 155.628 110.649 155.916 110.508 157.218C110.358 158.52 110.508 161.844 110.508 164.736C110.508 167.628 111.087 192.078 110.94 195.69C110.94 195.726 110.94 195.762 110.934 195.795C110.862 198.087 111.108 211.971 111.156 223.809L113.751 226.404L176.85 226.605L202.443 271.734Z" fill="#EBAB2E"/>
<path d="M254.322 78.615C254.592 77.604 257.583 66.408 257.751 65.835C257.757 65.829 257.757 65.82 257.757 65.814C257.751 65.574 257.565 65.391 257.334 65.382C257.121 65.382 256.932 65.553 256.911 65.757C256.839 65.961 256.365 67.878 255.786 70.035C254.895 73.338 253.77 77.349 253.68 77.721C253.665 77.835 253.623 77.97 253.575 78.117C253.455 78.507 253.299 78.987 253.638 79.227C253.638 79.233 253.644 79.242 253.653 79.242C253.668 79.242 253.674 79.248 253.68 79.248C253.785 79.275 253.893 79.263 253.983 79.212C254.181 79.098 254.286 78.822 254.322 78.615Z" stroke="#101111" stroke-miterlimit="10"/>
<path d="M202.443 271.734C202.458 263.256 202.563 253.113 202.563 253.113C202.767 241.167 203.001 227.286 203.079 221.727C203.106 220.101 203.1 206.259 202.917 195.801C202.803 189.528 202.626 184.464 202.359 183.978C201.639 182.676 175.308 155.187 174.297 155.046C173.286 154.896 153.03 155.337 150.288 155.478C147.537 155.628 116.583 155.916 114.27 155.769C111.951 155.628 110.649 155.916 110.508 157.218C110.358 158.52 110.508 161.844 110.508 164.736C110.508 167.628 111.087 192.078 110.94 195.69C110.94 195.726 110.94 195.762 110.934 195.795C110.862 198.087 110.871 210.222 110.919 222.06" stroke="#101111" stroke-width="2" stroke-miterlimit="10" stroke-linecap="round" stroke-linejoin="round"/>
<path d="M174.294 155.043C174.294 155.043 175.164 158.658 175.356 161.838C175.548 165.018 175.548 180.354 175.455 181.323C175.356 182.286 175.647 183.246 176.898 183.537C178.158 183.828 189.339 184.599 196.962 184.599C200.526 184.599 202.359 183.978 202.359 183.978" stroke="#101111" stroke-width="2" stroke-miterlimit="10" stroke-linecap="round" stroke-linejoin="round"/>
<path d="M94.905 215.325C93.186 215.31 91.998 215.304 91.998 215.304C85.344 215.304 66.045 215.574 63.909 215.574C61.251 215.574 55.395 215.037 58.851 222.228C61.404 227.526 92.133 291.45 92.133 291.45C92.133 291.45 93.201 295.707 98.256 295.707C103.314 295.707 207.144 295.176 210.081 295.446C212.217 295.638 213.072 294.837 213.072 293.466C213.072 292.956 212.958 292.371 212.739 291.72C212.448 290.85 207.894 282.363 202.203 271.863C192.105 253.263 178.398 228.357 178.398 228.357C178.398 228.357 177.33 225.69 172.005 225.96C166.68 226.221 115.017 226.491 115.017 226.491C115.017 226.491 114.396 226.518 113.949 226.308C113.058 225.891 111.912 224.796 111.027 222.495C110.976 222.36 110.922 222.219 110.865 222.084C109.551 218.754 107.823 215.373 104.373 215.373C101.538 215.37 97.578 215.349 94.905 215.325Z" stroke="#101111" stroke-width="2" stroke-miterlimit="10" stroke-linecap="round" stroke-linejoin="round"/>
<path d="M38.958 87.498C39.453 85.467 41.823 85.347 42.225 85.284C43.095 85.149 43.836 85.377 44.7 85.587C46.059 85.926 46.935 87.483 47.31 88.74C47.769 90.282 47.259 91.773 46.101 92.877C45.273 93.669 44.22 94.185 43.146 94.581C42.75 94.731 42.291 94.914 42.171 95.316C42.108 95.541 42.255 96.399 42.249 96.639C42.213 98.04 42.228 98.676 42.327 99.837" stroke="#101111" stroke-width="2" stroke-miterlimit="10" stroke-linecap="round" stroke-linejoin="round"/>
<path d="M191.055 167.433C198.642 159.846 205.2 153.813 212.421 146.067C216.891 141.273 224.331 132.285 228.801 127.497" stroke="#101111" stroke-width="2" stroke-miterlimit="10" stroke-linecap="round" stroke-linejoin="round" stroke-dasharray="5 5"/>
<path d="M148.554 152.457C148.32 144.72 148.668 136.989 148.758 129.255C148.92 115.119 148.92 100.542 148.92 84.567" stroke="#101111" stroke-width="2" stroke-miterlimit="10" stroke-linecap="round" stroke-linejoin="round" stroke-dasharray="5 5"/>
<path d="M72.711 126.762C78.834 132.357 84.336 137.187 88.023 140.073C95.406 145.866 102.6 152.859 110.385 158.85" stroke="#101111" stroke-width="2" stroke-miterlimit="10" stroke-linecap="round" stroke-linejoin="round" stroke-dasharray="5 5"/>
<path d="M154.62 26.616L145.584 60.618" stroke="#1D1D1B" stroke-width="2" stroke-miterlimit="10" stroke-linecap="round" stroke-linejoin="round"/>
<path d="M161.304 57.069C163.383 55.089 165.462 53.115 167.541 51.135C169.677 49.104 172.158 46.518 174.033 44.247C172.929 43.065 169.053 39.048 168.339 38.256C166.77 36.501 164.349 33.963 162.555 32.166" stroke="#1D1D1B" stroke-width="2" stroke-miterlimit="10" stroke-linecap="round" stroke-linejoin="round"/>
<path d="M138.687 57.069C136.608 55.089 134.529 53.115 132.45 51.135C130.314 49.104 127.839 46.518 125.964 44.247C127.068 43.065 130.944 39.048 131.649 38.256C133.218 36.501 135.645 33.963 137.442 32.166" stroke="#1D1D1B" stroke-width="2" stroke-miterlimit="10" stroke-linecap="round" stroke-linejoin="round"/>
<mask id="mask3_1_4" style="mask-type:luminance" maskUnits="userSpaceOnUse" x="132" y="178" width="49" height="49">
<path d="M180.774 178.881H132.051V226.14H180.774V178.881Z" fill="white"/>
</mask>
<g mask="url(#mask3_1_4)">
<path d="M177.486 194.7C177.525 195.909 177.759 197.559 177.372 198.606C177.324 198.72 177.267 198.843 177.165 198.918C177.051 198.993 176.901 198.993 176.76 198.993C175.77 198.966 174.777 198.945 173.787 198.918C173.616 198.918 173.427 198.909 173.286 198.804C173.106 198.672 173.07 198.417 173.049 198.192C172.899 196.758 172.746 195.315 172.596 193.869C172.464 192.633 171.822 191.178 170.304 191.169C167.379 191.151 164.433 191.574 161.526 191.349C160.074 191.226 157.506 191.283 156.648 189.867C156.3 189.282 156.27 188.547 155.931 187.95C155.517 188.214 155.439 188.772 155.271 189.225C155.253 189.252 155.244 189.282 155.223 189.318C154.929 189.987 154.326 190.506 153.657 190.818C152.958 191.148 152.175 191.28 151.41 191.364C150.003 191.514 148.644 191.391 147.249 191.403C145.938 191.421 144.597 191.706 143.286 191.817C141.456 191.967 140.493 192.789 140.586 194.685C140.595 194.94 140.586 195.204 140.586 195.459C140.577 196.734 140.811 198.441 140.181 199.62C139.503 200.895 137.103 200.94 135.972 200.289C135.141 199.827 135.48 197.742 135.462 196.968C135.423 195.57 135.396 194.184 135.405 192.786C135.414 190.02 138.792 186.633 141.531 186.528C143.316 186.462 145.098 186.423 146.874 186.282C148.128 186.189 150.234 186.243 151.215 185.319C151.905 184.677 152.235 183.801 152.46 182.904C152.64 182.187 152.337 181.017 153.12 180.744C154.197 180.375 155.346 180.462 156.462 180.471C157.17 180.48 158.661 180.159 159.123 180.858C159.321 181.17 159.33 181.566 159.321 181.944C159.303 183.576 159.414 185.304 161.172 185.814C163.077 186.36 164.769 186.36 166.731 186.144C169.023 185.898 171.846 185.784 174.036 186.588C175.263 187.05 176.178 188.193 176.613 189.411C177.213 191.103 177.411 192.699 177.486 194.7Z" fill="black"/>
<path d="M176.871 208.392C177.636 208.884 177.447 210.345 177.429 211.203C177.39 213.741 177.42 215.346 176.637 217.809C176.25 219.036 175.371 220.215 174.165 220.716C172.014 221.604 169.182 221.595 166.89 221.433C165.06 221.301 162.681 221.028 161.151 222.357C160.461 222.951 160.017 223.905 159.669 224.727C159.348 225.483 159.48 226.557 158.724 226.992C158.232 227.274 156.741 227.286 156.147 227.37C155.478 227.463 154.836 227.286 154.155 227.256C153.9 227.247 153.627 227.217 153.465 227.028C153.381 226.914 153.351 226.764 153.324 226.632C153.03 225.132 152.616 223.875 151.407 222.828C150.387 221.94 148.293 222.081 147.036 222.027C145.251 221.961 143.469 221.979 141.684 221.979C138.948 221.979 135.447 218.724 135.324 215.958C135.24 213.909 135.135 211.833 135.447 209.796C135.606 208.785 135.618 208.314 136.683 208.221C137.505 208.137 138.324 208.344 139.137 208.353C140.94 208.392 140.355 211.884 140.412 213.09C140.421 213.354 140.439 213.609 140.439 213.873C140.412 215.769 141.411 216.552 143.241 216.639C144.552 216.696 145.911 216.933 147.225 216.903C148.623 216.864 149.97 216.687 151.377 216.789C152.151 216.846 152.934 216.948 153.642 217.251C154.134 217.458 154.605 217.77 154.944 218.196C155.037 218.31 155.124 218.508 155.208 218.724C155.331 219.045 155.463 219.384 155.643 219.489C156.501 219.96 156.804 218.706 157.161 218.235C157.773 217.404 158.511 216.924 159.519 216.66C162.954 215.781 166.767 216.444 170.268 216.282C171.777 216.216 172.374 214.743 172.458 213.498C172.551 212.055 172.647 210.609 172.752 209.166C172.761 208.938 172.791 208.686 172.968 208.542C173.1 208.428 173.289 208.419 173.46 208.41C174.372 208.356 176.052 207.864 176.871 208.392Z" fill="black"/>
<path d="M166.944 198.606C168.642 198.966 168.474 202.002 168.417 203.127C168.351 204.279 168.294 205.44 168.237 206.601C168.21 207.111 168.153 207.696 167.727 208.026C167.538 208.176 167.313 208.254 167.076 208.32C165.255 208.848 163.293 208.632 161.394 208.395C159.147 208.131 158.817 206.328 158.856 204.525C158.865 203.394 158.715 202.233 158.913 201.138C159.063 200.325 159.564 199.023 160.113 198.93C162.366 198.558 164.793 198.153 166.944 198.606Z" fill="black"/>
<path d="M154.155 201.201C154.41 202.938 154.128 205.089 153.966 206.07C153.495 208.836 150.531 208.467 148.425 208.296C146.784 208.164 144.849 208.995 144.462 206.91C144.048 204.684 144.084 202.173 144.414 199.944C144.441 199.764 144.48 199.575 144.594 199.434C144.726 199.284 144.924 199.218 145.122 199.17C147.321 198.594 149.634 198.576 151.908 198.624C152.202 198.633 152.502 198.642 152.775 198.756C153.591 199.098 153.987 200.061 154.155 201.201Z" fill="black"/>
</g>
</svg>
